<?xml version="1.0" encoding="UTF-8" standalone="no"?>
<!-- Created with Inkscape (http://www.inkscape.org/) -->

<svg
   width="210mm"
   height="297mm"
   viewBox="0 0 210 297"
   version="1.1"
   id="svg1"
   xmlns="http://www.w3.org/2000/svg"
   xmlns:svg="http://www.w3.org/2000/svg">
  <defs
     id="defs1" />
  <g
     id="layer1">
    <path
       id="rect1"
       style="fill:#ff0000;stroke-width:0.236385"
       d="m 88.944486,92.230139 15.597204,-3.122011 c 0,0 1.08017,7.532799 13.2575,27.531602 5.78394,9.49895 17.71251,27.16034 17.71251,27.16034 0,0 -9.27173,-0.81316 -13.72197,0.8221 -4.09623,1.50521 -11.91744,8.59938 -11.91744,8.59938 0,0 -8.9676,-18.55973 -12.515006,-28.83097 C 93.778991,114.0299 89.315736,93.715099 89.315736,93.715099 Z" />
    <path
       id="path1"
       style="fill:#ff0000;stroke-width:0.264583"
       d="m 118.61319,86.982576 c 0.0785,-0.08994 -4.07645,0.07788 -8.15799,0.80314 -5.45826,0.969892 -12.303341,4.704953 -12.303341,4.704953 0,0 -8.071452,0.69723 -14.093663,2.11129 -3.566327,0.837404 -9.230591,4.428671 -7.633301,1.287408 2.750137,-5.408477 5.470523,-11.012274 7.6779,-16.831223 5.050125,-13.312826 7.256023,-20.628129 7.256023,-20.628129 0,0 4.451204,6.369328 13.767812,16.104421 6.24464,6.525138 13.48656,12.44814 13.48656,12.44814 z" />
  </g>
</svg>
